<?xml version="1.0" encoding="UTF-8" standalone="no"?>
<!-- Created with Inkscape (http://www.inkscape.org/) -->

<svg
   xmlns:dc="http://purl.org/dc/elements/1.1/"
   xmlns:cc="http://creativecommons.org/ns#"
   xmlns:rdf="http://www.w3.org/1999/02/22-rdf-syntax-ns#"
   xmlns:svg="http://www.w3.org/2000/svg"
   xmlns="http://www.w3.org/2000/svg"
   xmlns:xlink="http://www.w3.org/1999/xlink"
   xmlns:sodipodi="http://sodipodi.sourceforge.net/DTD/sodipodi-0.dtd"
   xmlns:inkscape="http://www.inkscape.org/namespaces/inkscape"
   width="200"
   height="200"
   viewBox="0 0 52.916666 52.916668"
   version="1.1"
   id="svg8"
   inkscape:version="0.92.3 (2405546, 2018-03-11)"
   sodipodi:docname="combinationB.svg">
  <defs
     id="defs2">
    <linearGradient
       inkscape:collect="always"
       id="linearGradient876">
      <stop
         style="stop-color:#858585;stop-opacity:0.97326201"
         offset="0"
         id="stop872" />
      <stop
         style="stop-color:#ffffff;stop-opacity:1"
         offset="1"
         id="stop874" />
    </linearGradient>
    <linearGradient
       inkscape:collect="always"
       xlink:href="#linearGradient876"
       id="linearGradient878"
       x1="26.593319"
       y1="255.43956"
       x2="25.997375"
       y2="209.23944"
       gradientUnits="userSpaceOnUse" />
  </defs>
  <sodipodi:namedview
     id="base"
     pagecolor="#ffffff"
     bordercolor="#666666"
     borderopacity="1.0"
     inkscape:pageopacity="0.0"
     inkscape:pageshadow="2"
     inkscape:zoom="1.4"
     inkscape:cx="79.222998"
     inkscape:cy="188.24055"
     inkscape:document-units="mm"
     inkscape:current-layer="layer1"
     showgrid="false"
     units="px"
     inkscape:window-width="1163"
     inkscape:window-height="791"
     inkscape:window-x="732"
     inkscape:window-y="189"
     inkscape:window-maximized="0" />
  <metadata
     id="metadata5">
    <rdf:RDF>
      <cc:Work
         rdf:about="">
        <dc:format>image/svg+xml</dc:format>
        <dc:type
           rdf:resource="http://purl.org/dc/dcmitype/StillImage" />
        <dc:title></dc:title>
      </cc:Work>
    </rdf:RDF>
  </metadata>
  <g
     inkscape:label="dial"
     inkscape:groupmode="layer"
     id="layer1"
     transform="translate(0,-244.08331)"
     style="display:inline">
    <g
       id="g914"
       transform="translate(0,35.98335)">
      <path
         sodipodi:nodetypes="scccccccccccccssscsccccccccs"
         inkscape:connector-curvature="0"
         id="path842"
         d="m 25.997375,209.23954 c -9.904039,0 -17.9326184,8.02903 -17.9326209,17.93306 0.0011,0.0308 0.0022,0.0613 0.00347,0.092 h -0.00347 v 13.12942 l 4.8049519,2.2424 2.690879,-1.86465 v -1.41617 l -2.690879,-2.31312 v -9.04033 h 6.57e-4 6.57e-4 6.57e-4 6.57e-4 c -2.55e-4,-0.006 -4.98e-4,-0.0112 -7.33e-4,-0.0169 -2.34e-4,-0.006 -4.59e-4,-0.0112 -6.76e-4,-0.0169 -2.18e-4,-0.006 -4.27e-4,-0.0113 -6.3e-4,-0.0169 -2.02e-4,-0.006 -3.98e-4,-0.0113 -5.89e-4,-0.0169 2e-6,-7.25023 5.877436,-13.12767 13.127669,-13.12767 7.250231,0 13.127666,5.87743 13.127668,13.12767 -10e-4,0.0224 -0.0019,0.0449 -0.0031,0.0675 h 0.0031 v 32.12498 h 4.805396 V 227.2645 h -0.0042 c 0.0017,-0.0308 0.0034,-0.0614 0.0042,-0.092 0,-9.90404 -8.029027,-17.93306 -17.933064,-17.93306 z"
         style="opacity:1;fill:url(#linearGradient878);fill-opacity:1;stroke:#5e5e5e;stroke-width:0.5291667;stroke-miterlimit:4;stroke-dasharray:none;stroke-dashoffset:0;stroke-opacity:1" />
      <path
         sodipodi:nodetypes="cccccccccccssscsccccccccsc"
         inkscape:connector-curvature="0"
         id="path842-5"
         d="m 26.153839,210.99672 c -8.938569,0 -16.1845047,7.24634 -16.1845067,16.18489 9.92e-4,0.0278 0.002,0.0554 0.0032,0.083 h -0.0032 v 7.80596 l 1.4419667,-2.6921 v -6.98096 h 5.98e-4 5.96e-4 5.98e-4 5.97e-4 c -2.31e-4,-0.006 -4.53e-4,-0.0101 -6.69e-4,-0.0152 -2.11e-4,-0.006 -4.05e-4,-0.0101 -6.2e-4,-0.0152 -1.97e-4,-0.006 -3.83e-4,-0.0102 -5.73e-4,-0.0153 -1.84e-4,-0.006 -3.59e-4,-0.0102 -5.27e-4,-0.0152 3e-6,-6.54346 8.199072,-12.92856 14.74254,-12.92856 6.543459,0 14.621919,6.38509 14.621919,12.92856 -9.02e-4,0.0202 -0.0018,0.0405 -0.0027,0.0609 h 0.0027 v 28.99334 l 1.56298,2.53276 V 227.2645 h -0.0036 c 0.0018,-0.0278 0.0027,-0.0555 0.0036,-0.083 0,-8.93857 -7.246339,-16.1849 -16.184899,-16.1849 z"
         style="display:inline;opacity:0.5;fill:#bebebe;fill-opacity:0.98431373;stroke:none;stroke-width:0.47758222;stroke-miterlimit:4;stroke-dasharray:none;stroke-dashoffset:0;stroke-opacity:1" />
    </g>
  </g>
</svg>
